<svg width="35" height="35" viewBox="0 0 35 35" fill="none" xmlns="http://www.w3.org/2000/svg">
<g clip-path="url(#clip0_2938_211)">
<path d="M28.5674 33.655H24.9543V22.5093H28.711H29.9043L29.9596 21.3173L30.1877 16.4044L30.2484 15.0965H28.9391H24.9543V12.7589C24.9543 12.4529 24.971 12.2421 25.0008 12.093C25.0195 11.9994 25.0389 11.9532 25.048 11.9351C25.0995 11.9055 25.273 11.8382 25.7219 11.8382C26.5218 11.8382 27.2888 11.8418 27.8561 11.8453C28.1397 11.8471 28.3731 11.8488 28.5356 11.8502L28.7234 11.8517L28.7724 11.8522L28.7848 11.8523L28.7879 11.8523L28.7887 11.8523L28.7888 11.8523H28.7889L30.0201 11.8642L30.0505 10.6333L30.1641 6.0455L30.1919 4.9226L29.0783 4.77536L28.9145 6.01457C29.0783 4.77536 29.0782 4.77535 29.0781 4.77533L29.0778 4.7753L29.0772 4.77521L29.0756 4.775L29.0707 4.77436L29.0547 4.77232L28.9983 4.76536C28.95 4.75954 28.8808 4.75149 28.7925 4.74196C28.6159 4.7229 28.3624 4.69789 28.0469 4.673C27.4167 4.62328 26.5342 4.57368 25.5185 4.57368C22.8354 4.57368 20.7571 5.42412 19.3524 6.88265C17.9604 8.32789 17.3534 10.2422 17.3534 12.1491V15.0964H15.0607H13.8107V16.3464V21.2593V22.5093H15.0607H17.3534V33.655H6.81224C4.05771 33.655 1.80469 31.3935 1.80469 28.5315V6.37343C1.80469 3.51796 4.0475 1.26027 6.79349 1.25003H6.8122H28.5674C31.322 1.25003 33.575 3.5115 33.575 6.37347V28.5316C33.575 31.3935 31.322 33.655 28.5674 33.655ZM25.0299 11.9488C25.0293 11.9483 25.033 11.9443 25.0431 11.9381C25.0356 11.9461 25.0306 11.9492 25.0299 11.9488Z" stroke="white" stroke-width="2.5"/>
</g>
<defs>
<clipPath id="clip0_2938_211">
<rect width="34.2703" height="34.9049" fill="white" transform="translate(0.554688)"/>
</clipPath>
</defs>
</svg>
