<svg width="35" height="35" viewBox="0 0 35 35" fill="none" xmlns="http://www.w3.org/2000/svg">
<path fill-rule="evenodd" clip-rule="evenodd" d="M17.434 2.17658C8.78787 2.17658 1.78816 9.37448 1.78816 18.2387C1.78816 24.7473 5.56217 30.3483 10.994 32.8677C11.5623 33.1318 12.1178 33.0271 12.5519 32.6906C12.792 32.4973 12.9855 32.2493 13.1173 31.9658C13.2491 31.6824 13.3156 31.3712 13.3115 31.0567L13.3115 30.2155L11.3738 29.9439C11.3595 29.9419 11.3452 29.9395 11.331 29.9365C10.2629 29.7211 9.54181 29.3329 9.01348 28.7735C8.56939 28.3027 8.29809 27.739 8.06819 27.2608L7.98823 27.094C7.77574 26.6359 7.54371 26.1878 7.29282 25.7509C7.10005 25.4351 6.95012 25.2727 6.80162 25.1709C6.42464 24.9126 6.06195 24.4743 6.06195 23.9267C6.06066 23.7691 6.09331 23.6132 6.15752 23.4703C6.22173 23.3273 6.3159 23.2009 6.43321 23.1002C6.65462 22.9191 6.93056 22.824 7.21286 22.8316C7.52986 22.8316 7.8283 22.932 8.07676 23.0471C8.33093 23.1652 8.58367 23.3216 8.81928 23.484C9.39331 23.8795 9.95877 24.3474 10.4371 24.9244C10.9355 25.5236 11.2882 25.9044 11.8194 25.9826C12.2563 26.0476 12.7018 26.0491 13.0488 26.0328C13.097 25.7489 13.1766 25.4716 13.2858 25.2063C12.8621 25.1041 12.444 24.978 12.0335 24.8285C11.0997 24.4861 10.0587 23.9533 9.35904 23.146C8.59081 22.2575 8.11531 21.465 7.84972 20.5381C7.59126 19.6349 7.54842 18.6563 7.54842 17.452C7.54842 15.6072 8.32093 14.053 8.90067 13.228C8.67794 12.5057 8.51785 11.7644 8.42232 11.0127C8.35904 10.5387 8.35952 10.0579 8.42374 9.58406C8.49514 9.15162 8.67363 8.6203 9.14342 8.30004C9.59607 7.98862 10.1273 8.00191 10.5414 8.08161C10.9712 8.16573 11.4181 8.35022 11.8294 8.56127C12.4991 8.90367 13.1645 9.3612 13.6628 9.74936C14.5224 9.48813 16.0432 9.15162 17.4183 9.12063L17.4497 9.12063C18.8262 9.15162 20.2784 9.48813 21.1166 9.74788C21.6164 9.3612 22.2804 8.9022 22.9486 8.56127C23.3599 8.35022 23.8054 8.16573 24.2366 8.08161C24.6507 8.00191 25.1819 7.98862 25.636 8.29856C26.1044 8.6203 26.2843 9.15162 26.3542 9.58406C26.4271 10.0342 26.4099 10.5375 26.3542 11.0127C26.2591 11.7643 26.0995 12.5057 25.8773 13.228C26.4571 14.0545 27.2296 15.6086 27.2296 17.452C27.2296 18.6563 27.1867 19.6349 26.9297 20.5366C26.6627 21.4664 26.1872 22.2575 25.419 23.146C24.7193 23.9533 23.6783 24.4861 22.7444 24.8285C22.2487 25.0086 21.7422 25.155 21.228 25.2668C21.4036 25.8159 21.4664 26.2601 21.4664 26.5154L21.4664 31.0759C21.4664 31.7696 21.7792 32.3614 22.2233 32.7068C22.6545 33.0448 23.2085 33.1496 23.7768 32.8927C29.2601 30.3955 33.0784 24.7798 33.0784 18.2372C33.0784 9.37448 26.0815 2.17658 17.434 2.17658ZM13.8299 27.5102C13.4586 27.5648 13.8285 27.5102 13.8285 27.5102L13.8242 27.5102L13.8127 27.5131L13.7713 27.519C13.5592 27.5448 13.3464 27.563 13.1331 27.5737C12.7304 27.5928 12.1778 27.5943 11.6109 27.5102C10.4814 27.3449 9.79456 26.5184 9.35047 25.9812L9.30763 25.931C9.16244 25.7569 9.00646 25.5927 8.8407 25.4395C8.98778 25.7199 9.14056 26.0328 9.30478 26.3693L9.31906 26.3988L9.39188 26.5523C9.64177 27.0659 9.80598 27.4083 10.0787 27.6947C10.3443 27.9751 10.7584 28.2467 11.5952 28.4179L14.1569 28.7765C14.3358 28.8015 14.4998 28.8928 14.6186 29.0334C14.7373 29.174 14.8025 29.3544 14.8023 29.541L14.8023 31.0567C14.8023 32.2375 14.2668 33.2898 13.4458 33.9273C13.0147 34.2678 12.5019 34.4802 11.9626 34.5415C11.4234 34.6029 10.8781 34.511 10.3857 34.2757C4.44268 31.5202 0.298828 25.3849 0.298828 18.2387C0.298828 8.50961 7.9768 0.634277 17.434 0.634277C26.8912 0.634277 34.5691 8.50961 34.5691 18.2387C34.5691 25.4218 30.3724 31.5733 24.378 34.3052C23.8852 34.536 23.3409 34.6241 22.8034 34.5598C22.2659 34.4956 21.7554 34.2816 21.3265 33.9406C20.9024 33.6032 20.5598 33.1688 20.3254 32.6715C20.0911 32.1742 19.9713 31.6276 19.9757 31.0745L19.9757 26.514C19.9757 26.4107 19.9057 25.8144 19.5159 25.013C19.4621 24.9019 19.435 24.779 19.4369 24.6547C19.4388 24.5305 19.4696 24.4085 19.5267 24.2992C19.5839 24.1899 19.6657 24.0964 19.7652 24.0267C19.8648 23.957 19.9791 23.9131 20.0985 23.8987C20.5883 23.8426 21.4136 23.6788 22.2461 23.3733C23.0943 23.0633 23.8554 22.6383 24.308 22.1158C24.9806 21.3395 25.3161 20.7432 25.5003 20.0983C25.6917 19.4297 25.7402 18.6519 25.7402 17.452C25.7402 15.768 24.8835 14.3527 24.4894 13.8966C24.3999 13.7935 24.3389 13.6675 24.3128 13.5317C24.2867 13.3959 24.2964 13.2553 24.3409 13.1247C24.5408 12.5432 24.7835 11.6385 24.8763 10.8312C24.922 10.4253 24.9249 10.0859 24.8849 9.84086C24.876 9.75129 24.8497 9.66447 24.8078 9.58553C24.7095 9.56795 24.6087 9.57248 24.5122 9.59882C24.2695 9.64605 23.9596 9.76412 23.6083 9.94418C22.9087 10.3013 22.1804 10.8297 21.7292 11.2075C21.6297 11.291 21.511 11.3464 21.3846 11.3684C21.2583 11.3904 21.1285 11.3782 21.0081 11.333C19.8519 10.9421 18.6493 10.7171 17.434 10.6644C15.9961 10.6998 14.3368 11.1219 13.7699 11.333C13.6495 11.3782 13.5197 11.3904 13.3934 11.3684C13.267 11.3464 13.1483 11.291 13.0488 11.2075C12.4653 10.722 11.8357 10.2987 11.1697 9.94418C10.8837 9.78895 10.5793 9.67285 10.2643 9.59882C10.1683 9.57269 10.068 9.56816 9.97019 9.58554C9.92822 9.66445 9.902 9.75128 9.89308 9.84086C9.8531 10.0859 9.85596 10.4253 9.90165 10.8312C9.99447 11.6385 10.2386 12.5432 10.4371 13.1247C10.5271 13.3904 10.4714 13.6855 10.2886 13.8966C9.89451 14.3527 9.03775 15.768 9.03775 17.452C9.03775 18.6504 9.0863 19.4297 9.27765 20.0983C9.46328 20.7432 9.79741 21.338 10.4685 22.1158C10.9226 22.6383 11.6823 23.0633 12.5319 23.3733C13.227 23.6275 13.9465 23.8037 14.6781 23.8987C14.8286 23.9154 14.9706 23.9791 15.0853 24.0812C15.1999 24.1834 15.2817 24.3192 15.3199 24.4706C15.358 24.622 15.3506 24.7819 15.2987 24.9288C15.2468 25.0758 15.1529 25.203 15.0293 25.2934C14.7937 25.4676 14.6381 25.7804 14.551 26.142C14.506 26.3282 14.4792 26.5186 14.471 26.7103L14.471 26.7383C14.4728 26.9254 14.4088 27.1069 14.2909 27.2489C14.173 27.3908 14.0091 27.4837 13.8299 27.5102Z" fill="white" stroke="white" stroke-width="0.5"/>
</svg>
