<svg width="35" height="35" viewBox="0 0 35 35" fill="none" xmlns="http://www.w3.org/2000/svg">
<path fill-rule="evenodd" clip-rule="evenodd" d="M17.2601 0.634766C7.80012 0.634766 0.125 8.30988 0.125 17.7699C0.125 27.2299 7.80012 34.9051 17.2601 34.9051C26.7016 34.9051 34.3953 27.2299 34.3953 17.7699C34.3953 8.30988 26.7016 0.634766 17.2601 0.634766ZM28.5779 8.53264C30.6876 11.102 31.8551 14.3156 31.8864 17.64C31.4038 17.5472 26.5717 16.5619 21.7024 17.1759C21.5896 16.9331 21.4968 16.6733 21.3854 16.4134C21.0826 15.6986 20.7607 14.992 20.4202 14.2943C25.8092 12.101 28.2623 8.94246 28.5779 8.53264ZM17.2601 3.16363C20.977 3.16363 24.3784 4.55586 26.9615 6.84197C26.7016 7.21323 24.4898 10.169 19.2864 12.1196C16.8875 7.71587 14.2315 4.10892 13.8217 3.55202C14.9488 3.28884 16.1027 3.15801 17.2601 3.1622V3.16363ZM11.0344 4.5373C11.4242 5.05849 14.0259 8.68257 16.4605 12.9935C9.62073 14.8155 3.58059 14.7784 2.93088 14.7784C3.87903 10.2433 6.94622 6.47071 11.0344 4.5373ZM2.61531 17.7885V17.343C3.24788 17.3615 10.3461 17.4543 17.6514 15.261C18.0784 16.0792 18.4682 16.9146 18.8394 17.7514C18.6538 17.807 18.4496 17.8627 18.264 17.9184C10.7188 20.353 6.70347 27.0058 6.36933 27.5641C3.95244 24.8817 2.61502 21.3991 2.61531 17.7885ZM17.2601 32.4148C13.8774 32.4148 10.7559 31.2624 8.28419 29.3304C8.54407 28.7907 11.517 23.0661 19.769 20.186C19.8061 20.1674 19.8261 20.1674 19.8618 20.1488C21.9252 25.4822 22.7605 29.9616 22.9847 31.2439C21.2184 32.0064 19.2864 32.4148 17.2601 32.4148ZM25.4193 29.9059C25.2708 29.0134 24.4898 24.7396 22.5749 19.4791C27.1657 18.7552 31.1796 19.9446 31.6822 20.1117C31.0497 24.1813 28.7079 27.694 25.4193 29.9059Z" fill="white"/>
</svg>
