<svg width="36" height="35" viewBox="0 0 36 35" fill="none" xmlns="http://www.w3.org/2000/svg">
<path fill-rule="evenodd" clip-rule="evenodd" d="M10.6831 0.104715C12.5441 0.019039 13.1375 -4.85018e-08 17.8782 -6.65901e-08C22.619 -8.46784e-08 23.2124 0.0206255 25.0718 0.104715C26.9313 0.188804 28.2006 0.485496 29.3112 0.915461C30.4742 1.35495 31.5292 2.04194 32.4019 2.93043C33.2904 3.80146 33.9758 4.85496 34.4137 6.01951C34.8452 7.13013 35.1403 8.3994 35.226 10.2557C35.3117 12.1199 35.3307 12.7133 35.3307 17.4525C35.3307 22.1932 35.3101 22.7866 35.226 24.6476C35.1419 26.5039 34.8452 27.7732 34.4137 28.8838C33.9758 30.0485 33.2892 31.1038 32.4019 31.9761C31.5292 32.8646 30.4742 33.55 29.3112 33.9879C28.2006 34.4194 26.9313 34.7145 25.075 34.8002C23.2124 34.8859 22.619 34.9049 17.8782 34.9049C13.1375 34.9049 12.5441 34.8843 10.6831 34.8002C8.82676 34.7161 7.55749 34.4194 6.44688 33.9879C5.2822 33.5499 4.22696 32.8634 3.35462 31.9761C2.46674 31.1045 1.77964 30.0498 1.34124 28.8854C0.911277 27.7748 0.616171 26.5055 0.530496 24.6492C0.44482 22.785 0.425781 22.1916 0.425781 17.4525C0.425781 12.7117 0.446407 12.1184 0.530496 10.2589C0.614585 8.3994 0.911277 7.13013 1.34124 6.01951C1.78029 4.85509 2.46791 3.80037 3.35621 2.92884C4.22731 2.04115 5.28149 1.35406 6.4453 0.915461C7.55591 0.485496 8.82518 0.19039 10.6815 0.104715L10.6831 0.104715ZM24.9306 3.24616C23.0902 3.16207 22.5381 3.14462 17.8782 3.14462C13.2184 3.14462 12.6663 3.16207 10.8259 3.24616C9.12345 3.3239 8.20006 3.6079 7.58447 3.84748C6.77055 4.16479 6.18827 4.54081 5.57743 5.15165C4.9984 5.71497 4.55278 6.40074 4.27326 7.15868C4.03368 7.77428 3.74968 8.69767 3.67194 10.4001C3.58785 12.2405 3.5704 12.7927 3.5704 17.4525C3.5704 22.1123 3.58785 22.6644 3.67194 24.5048C3.74968 26.2073 4.03368 27.1307 4.27326 27.7462C4.5525 28.5031 4.99833 29.19 5.57743 29.7533C6.14067 30.3324 6.82766 30.7782 7.58446 31.0575C8.20006 31.297 9.12345 31.581 10.8259 31.6588C12.6663 31.7429 13.2169 31.7603 17.8782 31.7603C22.5396 31.7603 23.0902 31.7429 24.9306 31.6588C26.633 31.581 27.5564 31.297 28.172 31.0575C28.9859 30.7401 29.5682 30.3641 30.1791 29.7533C30.7582 29.19 31.204 28.5031 31.4832 27.7462C31.7228 27.1307 32.0068 26.2073 32.0846 24.5048C32.1686 22.6644 32.1861 22.1123 32.1861 17.4525C32.1861 12.7927 32.1686 12.2405 32.0846 10.4001C32.0068 8.69767 31.7228 7.77428 31.4832 7.15868C31.1659 6.34476 30.7899 5.76249 30.1791 5.15165C29.6157 4.57266 28.9299 4.12705 28.172 3.84748C27.5564 3.6079 26.633 3.3239 24.9306 3.24616ZM15.6491 22.8326C16.894 23.3508 18.2803 23.4208 19.571 23.0305C20.8618 22.6402 21.977 21.8139 22.7262 20.6927C23.4755 19.5715 23.8122 18.2249 23.6789 16.883C23.5456 15.5412 22.9506 14.2872 21.9954 13.3353C21.3866 12.7268 20.6504 12.2609 19.8398 11.971C19.0292 11.6812 18.1645 11.5747 17.3079 11.6592C16.4512 11.7437 15.6239 12.0171 14.8856 12.4597C14.1473 12.9023 13.5163 13.503 13.038 14.2188C12.5598 14.9345 12.2462 15.7473 12.1198 16.5988C11.9933 17.4503 12.0573 18.3192 12.307 19.143C12.5567 19.9668 12.986 20.725 13.5639 21.363C14.1418 22.0009 14.8539 22.5029 15.6491 22.8326ZM11.5351 11.1093C12.3681 10.2763 13.357 9.61552 14.4453 9.1647C15.5337 8.71389 16.7002 8.48186 17.8782 8.48186C19.0563 8.48186 20.2228 8.71389 21.3111 9.1647C22.3995 9.61552 23.3884 10.2763 24.2214 11.1093C25.0544 11.9423 25.7152 12.9312 26.166 14.0196C26.6168 15.1079 26.8489 16.2744 26.8489 17.4525C26.8489 18.6305 26.6168 19.797 26.166 20.8854C25.7152 21.9737 25.0544 22.9626 24.2214 23.7956C22.5391 25.478 20.2574 26.4231 17.8782 26.4231C15.4991 26.4231 13.2174 25.478 11.5351 23.7956C9.85275 22.1133 8.90764 19.8316 8.90764 17.4525C8.90764 15.0733 9.85275 12.7916 11.5351 11.1093ZM28.8384 9.81781C29.0448 9.62308 29.2101 9.38892 29.3244 9.12918C29.4387 8.86945 29.4997 8.58942 29.5038 8.30568C29.508 8.02193 29.4551 7.74024 29.3485 7.47729C29.2418 7.21433 29.0834 6.97545 28.8828 6.77479C28.6821 6.57413 28.4432 6.41578 28.1803 6.30909C27.9173 6.20241 27.6356 6.14958 27.3519 6.15371C27.0681 6.15785 26.7881 6.21887 26.5284 6.33318C26.2686 6.44748 26.0345 6.61273 25.8397 6.81915C25.461 7.22061 25.2537 7.75385 25.2618 8.30568C25.2698 8.8575 25.4926 9.38447 25.8828 9.77472C26.2731 10.165 26.8 10.3878 27.3519 10.3958C27.9037 10.4038 28.4369 10.1965 28.8384 9.81781Z" fill="white"/>
</svg>
