<svg width="36" height="35" viewBox="0 0 36 35" fill="none" xmlns="http://www.w3.org/2000/svg">
<path d="M26.762 19.4774L26.762 25.9471L22.9539 25.9471L22.9539 19.9096C22.9539 18.3941 22.403 17.3599 21.0241 17.3599C19.9721 17.3599 19.3449 18.0564 19.0694 18.7319C18.9699 18.9734 18.9433 19.3094 18.9433 19.6454L18.9433 25.9471L15.1334 25.9471C15.1334 25.9471 15.185 15.7236 15.1334 14.6649L18.9433 14.6649L18.9433 16.2626L18.9184 16.2994L18.9433 16.2994L18.9433 16.2644C19.4497 15.4944 20.3524 14.3989 22.3764 14.3989C24.8819 14.3989 26.762 16.0124 26.762 19.4774ZM11.1477 9.22412C9.84514 9.22412 8.99219 10.0676 8.99219 11.1736C8.99219 12.2586 9.82026 13.1249 11.0979 13.1249L11.1228 13.1249C12.452 13.1249 13.2783 12.2569 13.2783 11.1736C13.2534 10.0676 12.452 9.22412 11.1477 9.22412ZM9.21786 25.9471L13.0277 25.9471L13.0277 14.6649L9.21786 14.6649L9.21786 25.9471Z" fill="white"/>
<path d="M7.21533 3.5C6.27277 3.5 5.3688 3.86874 4.70231 4.52512C4.03581 5.1815 3.66138 6.07173 3.66138 6.99999L3.66138 28C3.66138 28.9282 4.03581 29.8185 4.70231 30.4748C5.3688 31.1312 6.27277 31.5 7.21533 31.5L28.5391 31.5C29.4816 31.5 30.3856 31.1312 31.0521 30.4748C31.7186 29.8185 32.093 28.9282 32.093 28L32.093 6.99999C32.093 6.07173 31.7186 5.1815 31.0521 4.52512C30.3856 3.86874 29.4816 3.5 28.5391 3.5L7.21533 3.5ZM7.21533 -8.43397e-09L28.5391 -3.37359e-08C30.4242 -3.59727e-08 32.2321 0.737497 33.5651 2.05025C34.8981 3.363 35.647 5.14348 35.647 6.99999L35.647 28C35.647 29.8565 34.8981 31.637 33.5651 32.9497C32.2321 34.2625 30.4242 35 28.5391 35L7.21533 35C5.3302 35 3.52227 34.2625 2.18928 32.9497C0.856289 31.637 0.107422 29.8565 0.107422 28L0.107422 6.99999C0.107422 5.14348 0.856289 3.363 2.18928 2.05025C3.52227 0.737497 5.3302 -6.19714e-09 7.21533 -8.43397e-09Z" fill="white"/>
</svg>
