<svg width="36" height="35" viewBox="0 0 36 35" fill="none" xmlns="http://www.w3.org/2000/svg">
<path d="M26.4587 12.1244C25.8153 12.4037 25.1247 12.5957 24.3991 12.6794C25.1404 12.2431 25.7069 11.552 25.9761 10.73C25.2697 11.1409 24.4989 11.43 23.6962 11.5852C23.3585 11.2319 22.9523 10.951 22.5023 10.7595C22.0523 10.5681 21.568 10.4702 21.0788 10.4717C19.0979 10.4717 17.4929 12.0511 17.4929 13.9971C17.4929 14.2728 17.5243 14.5416 17.5855 14.7999C16.1646 14.7326 14.7734 14.3703 13.5006 13.7363C12.2278 13.1022 11.1014 12.2103 10.1932 11.1174C9.87428 11.6534 9.70634 12.2655 9.70719 12.8889C9.70719 14.1105 10.3419 15.1926 11.3035 15.8226C10.7343 15.8048 10.1773 15.6535 9.67747 15.3811L9.67747 15.4247C9.68287 16.244 9.9726 17.0362 10.4973 17.6662C11.0221 18.2963 11.7493 18.7253 12.5553 18.8803C12.0262 19.02 11.4725 19.0402 10.9346 18.9396C11.1691 19.6445 11.6176 20.259 12.2179 20.6977C12.8183 21.1365 13.5405 21.3779 14.2845 21.3882C13.0081 22.37 11.441 22.9005 9.82958 22.8961C9.54109 22.8961 9.2561 22.8787 8.97461 22.8472C10.6189 23.8862 12.5256 24.4364 14.4716 24.4337C21.0701 24.4337 24.6771 19.0618 24.6771 14.402L24.6648 13.9447C25.3682 13.4513 25.976 12.8346 26.4587 12.1244Z" fill="white"/>
<path d="M7.22801 3.49049C6.30059 3.49049 5.41116 3.85824 4.75538 4.51283C4.0996 5.16743 3.73119 6.05525 3.73119 6.98099L3.73119 27.9239C3.73119 28.8497 4.0996 29.7375 4.75538 30.3921C5.41116 31.0467 6.30059 31.4144 7.22801 31.4144L28.2089 31.4144C29.1363 31.4144 30.0257 31.0467 30.6815 30.3921C31.3373 29.7375 31.7057 28.8497 31.7057 27.9239L31.7057 6.98099C31.7057 6.05525 31.3373 5.16743 30.6815 4.51283C30.0257 3.85824 29.1363 3.49049 28.2089 3.49049L7.22801 3.49049ZM7.22801 -3.49827e-08L28.2089 -1.39931e-07C30.0637 -1.49209e-07 31.8426 0.735495 33.1541 2.04468C34.4657 3.35387 35.2025 5.12951 35.2025 6.98099L35.2025 27.9239C35.2025 29.7754 34.4657 31.5511 33.1541 32.8602C31.8426 34.1694 30.0637 34.9049 28.2089 34.9049L7.22801 34.9049C5.37318 34.9049 3.59432 34.1694 2.28276 32.8602C0.971201 31.5511 0.234374 29.7754 0.234374 27.9239L0.234375 6.98099C0.234375 5.12951 0.971202 3.35387 2.28276 2.04468C3.59432 0.735495 5.37318 -2.57047e-08 7.22801 -3.49827e-08Z" fill="white"/>
</svg>
