<svg width="47" height="33" viewBox="0 0 47 33" fill="none" xmlns="http://www.w3.org/2000/svg">
<path d="M46.2215 16.3796C46.2215 16.2739 46.2215 16.1538 46.2165 16.0145C46.2114 15.6253 46.2012 15.1881 46.1911 14.722C46.1505 13.3815 46.0794 12.0458 45.9677 10.787C45.8154 9.05252 45.5919 7.60631 45.2873 6.52046C44.9658 5.38728 44.3357 4.35379 43.4598 3.52329C42.584 2.6928 41.4931 2.09439 40.2963 1.78787C38.8594 1.42271 36.0465 1.19689 32.0862 1.05756C30.2025 0.990292 28.1868 0.94705 26.1711 0.923027C25.4653 0.913418 24.8104 0.908613 24.2214 0.903809H22.7287C22.1397 0.908613 21.4847 0.913418 20.779 0.923027C18.7633 0.94705 16.7475 0.990292 14.8638 1.05756C10.9035 1.2017 8.08559 1.42752 6.65378 1.78787C5.45655 2.09363 4.36526 2.69179 3.48929 3.52241C2.61332 4.35302 1.98343 5.38691 1.66275 6.52046C1.35303 7.60631 1.1347 9.05252 0.982383 10.787C0.870681 12.0458 0.799598 13.3815 0.75898 14.722C0.743748 15.1881 0.73867 15.6253 0.733593 16.0145C0.733593 16.1538 0.728516 16.2739 0.728516 16.3796V16.6487C0.728516 16.7544 0.728516 16.8745 0.733593 17.0138C0.73867 17.403 0.748825 17.8402 0.75898 18.3063C0.799598 19.6468 0.870681 20.9825 0.982383 22.2413C1.1347 23.9758 1.35811 25.422 1.66275 26.5079C2.31265 28.8093 4.22173 30.6255 6.65378 31.2405C8.08559 31.6056 10.9035 31.8314 14.8638 31.9708C16.7475 32.038 18.7633 32.0813 20.779 32.1053C21.4847 32.1149 22.1397 32.1197 22.7287 32.1245H24.2214C24.8104 32.1197 25.4653 32.1149 26.1711 32.1053C28.1868 32.0813 30.2025 32.038 32.0862 31.9708C36.0465 31.8266 38.8645 31.6008 40.2963 31.2405C42.7283 30.6255 44.6374 28.8141 45.2873 26.5079C45.597 25.422 45.8154 23.9758 45.9677 22.2413C46.0794 20.9825 46.1505 19.6468 46.1911 18.3063C46.2063 17.8402 46.2114 17.403 46.2165 17.0138C46.2165 16.8745 46.2215 16.7544 46.2215 16.6487V16.3796ZM42.5658 16.6295C42.5658 16.7304 42.5659 16.8409 42.5608 16.9706C42.5557 17.3454 42.5455 17.7586 42.5354 18.2054C42.4998 19.4834 42.4288 20.7615 42.3221 21.9482C42.1851 23.4953 41.9921 24.7638 41.7535 25.6142C41.4387 26.7241 40.5146 27.6033 39.3468 27.8964C38.2806 28.1655 35.5947 28.3817 31.944 28.5114C30.0959 28.5787 28.1056 28.6219 26.1203 28.6459C25.4247 28.6555 24.7799 28.6603 24.2011 28.6603H22.749L20.8297 28.6459C18.8445 28.6219 16.8592 28.5787 15.006 28.5114C11.3554 28.3769 8.66441 28.1655 7.60324 27.8964C6.43545 27.5985 5.51138 26.7241 5.19658 25.6142C4.95795 24.7638 4.76501 23.4953 4.62792 21.9482C4.52129 20.7615 4.45529 19.4834 4.41467 18.2054C4.39944 17.7586 4.39436 17.3406 4.38928 16.9706C4.38928 16.8409 4.38421 16.7256 4.38421 16.6295V16.3988C4.38421 16.2979 4.38421 16.1874 4.38928 16.0577C4.39436 15.683 4.40451 15.2697 4.41467 14.8229C4.45021 13.5449 4.52129 12.2668 4.62792 11.0801C4.76501 9.53298 4.95795 8.26455 5.19658 7.41413C5.51138 6.30425 6.43545 5.425 7.60324 5.13191C8.66949 4.86285 11.3554 4.64664 15.006 4.51691C16.8542 4.44965 18.8445 4.40641 20.8297 4.38238C21.5253 4.37278 22.1702 4.36797 22.749 4.36797H24.2011L26.1203 4.38238C28.1056 4.40641 30.0908 4.44965 31.944 4.51691C35.5947 4.65144 38.2856 4.86285 39.3468 5.13191C40.5146 5.4298 41.4387 6.30425 41.7535 7.41413C41.9921 8.26455 42.1851 9.53298 42.3221 11.0801C42.4288 12.2668 42.4948 13.5449 42.5354 14.8229C42.5506 15.2697 42.5557 15.6878 42.5608 16.0577C42.5608 16.1874 42.5658 16.3028 42.5658 16.3988V16.6295ZM18.9562 22.9524L30.7356 16.4661L18.9562 10.0759V22.9524Z" fill="white"/>
</svg>
